<svg xmlns="http://www.w3.org/2000/svg" width="320" height="320" viewBox="0 0 320 320" role="img" aria-label="AI MOM avatar">
          <defs><clipPath id="mclip5"><circle cx="160" cy="160" r="160"></circle></clipPath></defs>
          <g clip-path="url(#mclip5)">
            <rect x="0" y="0" width="320" height="320" fill="#CFE4EE"></rect>
            <g fill="#C7C9C0">
              <circle cx="160" cy="66" r="34"></circle>
              <circle cx="122" cy="78" r="30"></circle>
              <circle cx="198" cy="78" r="30"></circle>
              <circle cx="96" cy="112" r="30"></circle>
              <circle cx="224" cy="112" r="30"></circle>
              <circle cx="92" cy="150" r="24"></circle>
              <circle cx="228" cy="150" r="24"></circle>
            </g>
            <path d="M140 184 h40 v38 h-40 z" fill="#DE9375"></path>
            <path d="M28 320 C34 256 92 224 160 224 C228 224 286 256 292 320 Z" fill="#FAF3E7"></path>
            <path d="M28 320 C34 256 92 224 160 224 L130 320 Z" fill="#EF7A3A"></path>
            <path d="M292 320 C286 256 228 224 160 224 L190 320 Z" fill="#EF7A3A"></path>
            <path d="M130 320 L160 224 L190 320" fill="none" stroke="#D3652C" stroke-width="2.5"></path>
            <g fill="#FFFFFF"><circle cx="142" cy="234" r="5.5"></circle><circle cx="156" cy="240" r="5.5"></circle><circle cx="170" cy="238" r="5.5"></circle><circle cx="182" cy="230" r="5"></circle><circle cx="132" cy="226" r="5"></circle></g>
            <ellipse cx="104" cy="156" rx="10" ry="14" fill="#F2B394"></ellipse>
            <ellipse cx="216" cy="156" rx="10" ry="14" fill="#F2B394"></ellipse>
            <path d="M102 138 C102 96 128 74 160 74 C192 74 218 96 218 138 C218 178 192 206 160 206 C128 206 102 178 102 138 Z" fill="#F2B394"></path>
            <path d="M100 130 C104 90 128 66 160 66 C194 66 218 90 220 128 C200 110 182 102 156 104 C130 106 110 114 100 130 Z" fill="#C7C9C0"></path>
            <path d="M125 129 C133 123 145 123 151 128" fill="none" stroke="#A7A9A0" stroke-width="4" stroke-linecap="round"></path><path d="M195 129 C187 123 175 123 169 128" fill="none" stroke="#A7A9A0" stroke-width="4" stroke-linecap="round"></path><ellipse cx="137" cy="151" rx="5.5" ry="5" fill="#2B1F1C"></ellipse><ellipse cx="183" cy="151" rx="5.5" ry="5" fill="#2B1F1C"></ellipse><path d="M130 145 C136 141 146 141 151 145" fill="none" stroke="#2B1F1C" stroke-width="3" stroke-linecap="round"></path><path d="M190 145 C184 141 174 141 169 145" fill="none" stroke="#2B1F1C" stroke-width="3" stroke-linecap="round"></path><path d="M160 152 C155 166 152 170 158 172" fill="none" stroke="#DE9375" stroke-width="2.5" stroke-linecap="round"></path><path d="M151 184 C157 190 165 190 171 183" fill="none" stroke="#D9756A" stroke-width="3.5" stroke-linecap="round"></path><circle cx="122" cy="169" r="9" fill="#E8735B" opacity="0.32"></circle><circle cx="198" cy="169" r="9" fill="#E8735B" opacity="0.32"></circle><path d="M116 141 l-11 -4 M116 151 l-12 1 M204 141 l11 -4 M204 151 l12 1" fill="none" stroke="#DE9375" stroke-width="1.8" stroke-linecap="round" opacity="0.6"></path><path d="M131 193 C139 199 151 200 159 198 M189 193 C181 199 169 200 161 198" fill="none" stroke="#DE9375" stroke-width="1.8" stroke-linecap="round" opacity="0.7"></path><g transform="rotate(-9 220 280)"><rect x="184" y="242" width="78" height="70" rx="7" fill="#FFFDF6" stroke="#D8C7B0" stroke-width="2.5"></rect><path d="M196 260 h54 M196 276 h54 M196 292 h36" fill="none" stroke="#C9B79E" stroke-width="3.5" stroke-linecap="round"></path></g><g transform="rotate(22 118 280)"><rect x="110" y="250" width="13" height="62" rx="5" fill="#F2B23E"></rect><path d="M110 250 L116.5 234 L123 250 Z" fill="#EFDCC2"></path><path d="M113 241 L116.5 234 L120 241 Z" fill="#3A2B2B"></path></g><g><path d="M112 312 C110 296 118 286 131 286 C144 286 151 295 150 312 Z" fill="#F2B394"></path><path d="M120 292 C124 288 132 287 138 289 M118 299 C123 295 132 294 139 296" fill="none" stroke="#DE9375" stroke-width="2" stroke-linecap="round" opacity="0.8"></path></g><g><path d="M178 312 C176 294 185 284 198 284 C211 284 219 294 217 312 Z" fill="#F2B394"></path><path d="M186 291 C191 287 200 286 207 288 M184 299 C190 295 199 294 207 296" fill="none" stroke="#DE9375" stroke-width="2" stroke-linecap="round" opacity="0.8"></path></g></g></svg>