<svg xmlns="http://www.w3.org/2000/svg" width="320" height="320" viewBox="0 0 320 320" role="img" aria-label="AI MOM avatar">
          <defs><clipPath id="mclip5"><circle cx="160" cy="160" r="160"></circle></clipPath></defs>
          <g clip-path="url(#mclip5)">
            <rect x="0" y="0" width="320" height="320" fill="#CFE4EE"></rect>
            <g fill="#C7C9C0">
              <circle cx="160" cy="66" r="34"></circle>
              <circle cx="122" cy="78" r="30"></circle>
              <circle cx="198" cy="78" r="30"></circle>
              <circle cx="96" cy="112" r="30"></circle>
              <circle cx="224" cy="112" r="30"></circle>
              <circle cx="92" cy="150" r="24"></circle>
              <circle cx="228" cy="150" r="24"></circle>
            </g>
            <path d="M140 184 h40 v38 h-40 z" fill="#DE9375"></path>
            <path d="M28 320 C34 256 92 224 160 224 C228 224 286 256 292 320 Z" fill="#FAF3E7"></path>
            <path d="M28 320 C34 256 92 224 160 224 L130 320 Z" fill="#EF7A3A"></path>
            <path d="M292 320 C286 256 228 224 160 224 L190 320 Z" fill="#EF7A3A"></path>
            <path d="M130 320 L160 224 L190 320" fill="none" stroke="#D3652C" stroke-width="2.5"></path>
            <g fill="#FFFFFF"><circle cx="142" cy="234" r="5.5"></circle><circle cx="156" cy="240" r="5.5"></circle><circle cx="170" cy="238" r="5.5"></circle><circle cx="182" cy="230" r="5"></circle><circle cx="132" cy="226" r="5"></circle></g>
            <ellipse cx="104" cy="156" rx="10" ry="14" fill="#F2B394"></ellipse>
            <ellipse cx="216" cy="156" rx="10" ry="14" fill="#F2B394"></ellipse>
            <path d="M102 138 C102 96 128 74 160 74 C192 74 218 96 218 138 C218 178 192 206 160 206 C128 206 102 178 102 138 Z" fill="#F2B394"></path>
            <path d="M100 130 C104 90 128 66 160 66 C194 66 218 90 220 128 C200 110 182 102 156 104 C130 106 110 114 100 130 Z" fill="#C7C9C0"></path>
            <path d="M123 125 C133 130 145 134 152 137" fill="none" stroke="#A7A9A0" stroke-width="4.5" stroke-linecap="round"></path><path d="M197 125 C187 130 175 134 168 137" fill="none" stroke="#A7A9A0" stroke-width="4.5" stroke-linecap="round"></path><path d="M154 136 L156 127 M166 136 L164 127" fill="none" stroke="#DE9375" stroke-width="2.4" stroke-linecap="round"></path><ellipse cx="137" cy="149" rx="5.5" ry="6" fill="#2B1F1C"></ellipse><ellipse cx="183" cy="149" rx="5.5" ry="6" fill="#2B1F1C"></ellipse><path d="M130 143 L151 147" fill="none" stroke="#2B1F1C" stroke-width="4" stroke-linecap="round"></path><path d="M190 143 L169 147" fill="none" stroke="#2B1F1C" stroke-width="4" stroke-linecap="round"></path><path d="M160 152 C155 166 152 170 158 172" fill="none" stroke="#DE9375" stroke-width="2.5" stroke-linecap="round"></path><path d="M145 189 C153 180 167 180 175 189" fill="none" stroke="#D9756A" stroke-width="4.5" stroke-linecap="round"></path><circle cx="122" cy="166" r="10" fill="#E8735B" opacity="0.47"></circle><circle cx="198" cy="166" r="10" fill="#E8735B" opacity="0.47"></circle><path d="M116 141 l-11 -4 M116 151 l-12 1 M204 141 l11 -4 M204 151 l12 1" fill="none" stroke="#DE9375" stroke-width="1.8" stroke-linecap="round" opacity="0.6"></path><path d="M131 193 C139 199 151 200 159 198 M189 193 C181 199 169 200 161 198" fill="none" stroke="#DE9375" stroke-width="1.8" stroke-linecap="round" opacity="0.7"></path></g></svg>